<svg xmlns="http://www.w3.org/2000/svg" width="28" height="28" fill="none"><g fill="#F3F3F3" opacity=".8"><path d="M25.128 9.411a8.098 8.098 0 0 0-.521-2.751 5.73 5.73 0 0 0-3.276-3.27 8.23 8.23 0 0 0-2.719-.522C17.416 2.815 17.036 2.8 14 2.8c-3.038 0-3.427 0-4.615.068-.93.02-1.849.195-2.718.522A5.726 5.726 0 0 0 3.39 6.66a8.127 8.127 0 0 0-.522 2.713c-.053 1.196-.07 1.575-.07 4.607 0 3.033 0 3.42.07 4.607a8.18 8.18 0 0 0 .522 2.716 5.729 5.729 0 0 0 3.276 3.269c.866.337 1.785.529 2.718.559 1.198.053 1.577.069 4.615.069 3.037 0 3.427 0 4.615-.07a8.21 8.21 0 0 0 2.719-.52 5.736 5.736 0 0 0 3.275-3.27c.327-.869.502-1.785.521-2.715.054-1.195.07-1.574.07-4.608-.003-3.032-.003-3.417-.072-4.606ZM13.99 19.715a5.745 5.745 0 0 1-5.75-5.741 5.744 5.744 0 0 1 5.75-5.741c3.175 0 5.75 2.57 5.75 5.74a5.746 5.746 0 0 1-5.75 5.742Zm5.98-10.356a1.338 1.338 0 1 1 0-2.677 1.339 1.339 0 1 1 0 2.677Z"/><path d="M13.993 17.479a3.503 3.503 0 1 0 0-7.007 3.503 3.503 0 0 0 0 7.007Z"/></g></svg>